<?xml version="1.0" standalone="no"?>
<!DOCTYPE svg PUBLIC "-//W3C//DTD SVG 20010904//EN"
 "http://www.w3.org/TR/2001/REC-SVG-20010904/DTD/svg10.dtd">
<svg version="1.0" xmlns="http://www.w3.org/2000/svg"
 width="597.000000pt" height="597.000000pt" viewBox="0 0 597.000000 597.000000"
 preserveAspectRatio="xMidYMid meet">
<metadata>
Created by potrace 1.11, written by Peter Selinger 2001-2013
</metadata>
<g transform="translate(0.000000,597.000000) scale(0.100000,-0.100000)"
fill="#000000" stroke="none">
<path d="M0 2987 l0 -2982 1633 0 c1631 -1 1632 -1 1637 20 4 16 5 1231 1
1282 -1 10 -208 13 -983 15 l-983 3 0 1665 1 1665 979 3 c566 1 981 6 984 11
3 5 6 299 5 653 l0 643 -1637 3 -1637 2 0 -2983z"/>
<path d="M3719 5963 c-3 -26 -4 -1280 -1 -1290 3 -10 237 -13 1126 -13 l1121
0 0 653 0 652 -1122 3 c-618 1 -1123 -1 -1124 -5z"/>
<path d="M1750 2988 l0 -1228 762 2 761 3 0 1225 0 1225 -761 1 -762 0 0
-1228z"/>
<path d="M3718 4206 c-3 -9 -2 -2379 1 -2428 1 -17 61 -18 1121 -18 889 0
1120 3 1121 13 1 6 2 559 3 1228 l1 1215 -1122 0 c-783 0 -1123 -3 -1125 -10z"/>
<path d="M3717 673 c0 -357 2 -653 2 -658 1 -7 375 -10 1119 -9 614 1 1119 2
1122 3 3 0 5 295 5 653 l0 653 -1125 3 -1125 2 2 -647z"/>
</g>
</svg>
